HIERARCHY
ROOT Hips
{
	OFFSET 0.00000 0.00000 0.00000
	CHANNELS 6 Xposition Yposition Zposition Zrotation Yrotation Xrotation 
	JOINT LHipJoint
	{
		OFFSET 0 0 0
		CHANNELS 3 Zrotation Yrotation Xrotation
		JOINT LeftHip
		{
			OFFSET 1.32989 -1.57253 0.78074
			CHANNELS 3 Zrotation Yrotation Xrotation
			JOINT LeftKnee
			{
				OFFSET 2.24323 -6.16323 0.00000
				CHANNELS 3 Zrotation Yrotation Xrotation
				JOINT LeftAnkle
				{
					OFFSET 2.32677 -6.39275 0.00000
					CHANNELS 3 Zrotation Yrotation Xrotation
					JOINT LeftToe
					{
						OFFSET 0.18686 -0.51340 1.95973
						CHANNELS 3 Zrotation Yrotation Xrotation
						End Site
						{
							OFFSET 0.00000 -0.00000 1.02033
						}
					}
				}
			}
		}
	}
	JOINT RHipJoint
	{
		OFFSET 0 0 0
		CHANNELS 3 Zrotation Yrotation Xrotation
		JOINT RightHip
		{
			OFFSET -1.27392 -1.57253 0.78074
			CHANNELS 3 Zrotation Yrotation Xrotation
			JOINT RightKnee
			{
				OFFSET -2.19978 -6.04385 0.00000
				CHANNELS 3 Zrotation Yrotation Xrotation
				JOINT RightAnkle
				{
					OFFSET -2.29380 -6.30216 0.00000
					CHANNELS 3 Zrotation Yrotation Xrotation
					JOINT RightToe
					{
						OFFSET -0.24624 -0.67655 1.94854
						CHANNELS 3 Zrotation Yrotation Xrotation
						End Site
						{
							OFFSET -0.00000 -0.00000 1.03267
						}
					}
				}
			}
		}
	}
	JOINT lowerback
	{
		OFFSET 0 0 0
		CHANNELS 3 Zrotation Yrotation Xrotation
		JOINT Chest
		{
			OFFSET -0.05982 2.08655 0.02100
			CHANNELS 3 Zrotation Yrotation Xrotation
			JOINT Chest2
			{
				OFFSET 0.04735 2.08455 -0.01795
				CHANNELS 3 Zrotation Yrotation Xrotation
				JOINT lowerneck
				{
					OFFSET 0 0 0
					CHANNELS 3 Zrotation Yrotation Xrotation
					JOINT Neck
					{
						OFFSET -0.10038 1.43781 0.03084
						CHANNELS 3 Zrotation Yrotation Xrotation
						JOINT Head
						{
							OFFSET 0.07701 1.43632 -0.18495
							CHANNELS 3 Zrotation Yrotation Xrotation
							End Site
							{
								OFFSET 0.02744 1.45633 -0.07361
							}
						}
					}
				}
				JOINT LeftCollar
				{
					OFFSET 0 0 0
					CHANNELS 3 Zrotation Yrotation Xrotation
					JOINT LeftShoulder
					{
						OFFSET 2.75061 0.74389 0.25227
CHANNELS 3 Zrotation Xrotation Yrotation
						JOINT LeftElbow
						{
OFFSET 0 -4.369010 0.000000
CHANNELS 3 Zrotation Xrotation Yrotation
							JOINT LeftWrist
							{
OFFSET 0 -3.217370 -0.000000
CHANNELS 3 Zrotation Xrotation Yrotation
								JOINT lhand
								{
									OFFSET 0 0 0
CHANNELS 3 Zrotation Xrotation Yrotation
									JOINT LFingers
									{
OFFSET 0 -0.564310 0.000000
CHANNELS 3 Zrotation Xrotation Yrotation
										End Site
										{
OFFSET 0 -0.454960 0.000000
										}
									}
								}
								JOINT LThumb
								{
OFFSET 0 0.000000 0.000000
CHANNELS 3 Zrotation Xrotation Yrotation
									End Site
									{
OFFSET 0 -0.461910 0.461910
									}
								}
							}
						}
					}
				}
				JOINT RightCollar
				{
					OFFSET 0 0 0
					CHANNELS 3 Zrotation Yrotation Xrotation
					JOINT RightShoulder
					{
						OFFSET -2.97379 0.79094 0.48377
CHANNELS 3 Zrotation Xrotation Yrotation
						JOINT RightElbow
						{
OFFSET 0 -4.341180 -0.000000
CHANNELS 3 Zrotation Xrotation Yrotation
							JOINT RightWrist
							{
OFFSET 0 -3.095310 0.000000
CHANNELS 3 Zrotation Xrotation Yrotation
								JOINT rhand
								{
									OFFSET 0 0 0
CHANNELS 3 Zrotation Xrotation Yrotation
									JOINT RFingers
									{
OFFSET 0 -0.597450 0.000000
CHANNELS 3 Zrotation Xrotation Yrotation
										End Site
										{
OFFSET 0 -0.481680 0.000000
										}
									}
								}
								JOINT RThumb
								{
OFFSET 0 0.000000 0.000000
CHANNELS 3 Zrotation Xrotation Yrotation
									End Site
									{
OFFSET 0 -0.489030 0.489030
									}
								}
							}
						}
					}
				}
			}
		}
	}
}
MOTION
Frames: 10
Frame Time: 0.008333333333333333
7.579924 15.324814 6.534173 -177.198942 -182.978586 -151.300057 0.000000 0.000000 0.000000 -10.337912 -13.373594 -62.115054 9.990820 17.402026 59.453967 0.444275 3.833207 -14.580304 2.564856 -9.954909 -28.830833 0.000000 0.000000 0.000000 11.581366 15.654178 -52.054532 -5.833023 -14.261912 44.302755 -2.958269 -2.379318 -33.443195 -0.523486 4.631676 -12.861887 -4.184935 0.088152 12.109205 1.405694 -0.266791 7.095162 3.852550 -0.277933 0.683030 -6.462398 -4.198805 -6.551770 4.817352 -5.369722 6.882115 2.481432 -2.634135 3.800704 0.000000 0.000000 0.000000 28.402519 -59.774566 -22.339114 14.113054 -22.894361 2.872997 57.725416 33.912052 -49.021046 0.000000 0.000000 0.000000 -7.125000 0.000000 0.000000 134.410293 -83.193503 139.477111 0.000000 0.000000 0.000000 -23.857341 -62.205587 13.368667 -12.918992 -21.166182 -2.425418 -39.775707 8.946307 -20.238264 0.000000 0.000000 0.000000 7.125000 0.000000 0.000000 -7.053125 4.517503 -6.526430
7.627764 14.659889 7.485905 -177.491022 -182.005820 -152.432309 0.000000 0.000000 0.000000 -9.331625 -12.998912 -63.844898 14.277486 19.192264 73.046982 0.699160 4.450528 -18.023139 3.295178 -11.158202 -32.815248 0.000000 0.000000 0.000000 11.840698 14.848469 -56.052244 -10.278350 -17.556749 60.405570 -3.013991 0.320741 -32.841910 -0.256911 3.247426 -8.969587 -4.527670 0.032453 13.207362 1.499623 -0.425411 6.887483 4.177567 -0.345733 -0.102104 -5.983113 -3.479379 -6.628953 3.889912 -4.411770 9.106773 1.916097 -2.176500 4.024099 0.000000 0.000000 0.000000 25.390198 -50.306192 -22.056983 20.123715 -30.784253 5.597901 61.678445 40.611197 -50.057863 0.000000 0.000000 0.000000 -7.125000 0.000000 0.000000 145.810547 -80.445843 151.556169 0.000000 0.000000 0.000000 -17.695484 -53.492866 23.362861 -19.600404 -30.152156 -5.331971 -40.577377 2.134723 -20.247760 0.000000 0.000000 0.000000 7.125000 0.000000 0.000000 -7.538822 4.266938 -7.019225
7.766711 13.488823 8.686786 -177.779713 -181.657664 -157.077182 0.000000 0.000000 0.000000 -9.975875 -12.558222 -61.298970 19.946369 19.993689 89.843226 1.462605 6.497909 -25.998944 3.607472 -11.618687 -34.396351 0.000000 0.000000 0.000000 10.502438 16.190075 -57.299019 -17.835335 -19.874784 83.655995 -3.672932 1.680598 -35.950730 -1.045760 6.502657 -18.250283 -4.088909 0.037328 13.248665 1.633734 -0.360872 7.939608 4.056648 -0.352367 0.976526 -5.996276 -3.376722 -8.500762 3.917352 -4.225310 11.760250 1.900696 -2.070338 5.143393 0.000000 0.000000 0.000000 18.437947 -36.527545 -27.283897 31.571002 -42.182382 12.458805 65.609932 50.101001 -51.241235 0.000000 0.000000 0.000000 -7.125000 0.000000 0.000000 153.138645 -77.479712 159.285062 0.000000 0.000000 0.000000 -13.462103 -38.741690 29.378844 -30.893326 -41.611741 -12.011535 -45.091159 0.564734 -20.653630 0.000000 0.000000 0.000000 7.125000 0.000000 0.000000 -10.149874 2.261798 -9.899011
7.885766 13.259236 9.970108 -178.610304 -180.018863 -156.172942 0.000000 0.000000 0.000000 -11.652254 -13.209881 -54.996003 19.942865 19.998883 89.833023 1.463465 12.109074 -30.056232 4.255666 -12.493065 -37.499287 0.000000 0.000000 0.000000 11.871973 19.570310 -52.241867 -18.458929 -19.941713 85.489816 -4.134327 -1.706249 -39.179569 -2.101126 9.072571 -26.023170 -4.129147 0.150622 12.532160 1.655584 -0.185478 9.067677 4.074654 -0.330633 2.545742 -5.797013 -2.577174 -4.946864 3.454645 -3.279111 9.919097 2.024506 -1.667399 4.331474 0.000000 0.000000 0.000000 16.104341 -24.718399 -31.066077 41.084726 -48.698772 19.250440 78.785661 68.641246 -48.282168 0.000000 0.000000 0.000000 -7.125000 0.000000 0.000000 152.305904 -68.894092 163.683698 0.000000 0.000000 0.000000 -15.186860 -27.757713 36.366305 -39.982078 -48.058847 -18.426030 -56.622406 -17.007365 -25.411711 0.000000 0.000000 0.000000 7.125000 0.000000 0.000000 -15.297629 -9.581290 -18.241188
7.808210 16.841506 11.134730 -180.574860 -179.171003 -135.723893 0.000000 0.000000 0.000000 -3.996768 -13.982913 -59.354156 7.784979 15.905527 51.696090 0.293516 6.040426 9.185078 3.113476 -10.705413 -31.473145 0.000000 0.000000 0.000000 5.299396 23.479223 -55.700093 -6.283090 -14.643111 46.007468 0.128214 -8.045344 -8.258263 -2.563131 9.923564 -28.754217 -4.080616 1.132433 17.377661 1.581536 0.914830 11.057168 3.832816 0.186657 2.040737 -6.364663 -3.077916 -11.015495 4.159415 -3.575283 7.618743 2.060176 -1.713538 4.262866 0.000000 0.000000 0.000000 26.864334 -40.112484 -36.146001 26.507807 -37.674193 9.209003 83.028695 58.866691 -47.877162 0.000000 0.000000 0.000000 -7.125000 0.000000 0.000000 154.365934 -65.587194 166.863994 0.000000 0.000000 0.000000 -20.958690 -41.290724 36.968212 -28.112922 -39.204737 -10.200806 -84.073104 -72.272386 -34.168994 0.000000 0.000000 0.000000 7.125000 0.000000 0.000000 -28.479096 -46.228364 -41.775157
7.727244 20.397958 12.331931 -181.245162 -180.558726 -109.892826 0.000000 0.000000 0.000000 36.860598 -31.198773 -67.425672 3.594413 11.600040 34.331576 -4.694795 36.388342 -26.284678 0.110397 2.064806 5.688568 0.000000 0.000000 0.000000 2.042179 10.679598 -69.793574 -2.619840 -10.052007 29.145899 0.317030 -12.083697 2.890119 -1.717924 -8.248246 23.472901 -3.110799 1.580426 24.162109 1.133266 1.365967 9.159039 2.641857 0.579887 -3.453625 -3.577623 -3.205232 -15.009370 2.717452 -3.825720 -0.986861 1.255960 -1.844638 2.425823 0.000000 0.000000 0.000000 42.794293 -53.329912 -25.381395 25.484892 -36.695512 8.577983 74.805658 41.502638 -48.811455 0.000000 0.000000 0.000000 -7.125000 0.000000 0.000000 150.793158 -71.802199 160.898237 0.000000 0.000000 0.000000 -29.569230 -55.229936 26.682641 -26.390398 -37.591569 -9.124751 -95.519640 103.793150 35.144169 0.000000 0.000000 0.000000 7.125000 0.000000 0.000000 -40.130668 -60.259219 -55.923520
7.573337 22.554206 14.108212 -185.199115 -178.407684 -105.896022 0.000000 0.000000 0.000000 46.447102 -51.323864 -38.005178 2.411272 9.670615 27.920030 12.255579 -8.498137 -67.148225 9.277083 16.982717 57.043433 0.000000 0.000000 0.000000 15.636405 -15.727038 -65.263433 -1.216221 -6.989005 19.685468 -2.159763 -3.795702 26.776913 -5.654811 -14.075094 43.560389 -7.620707 6.002238 47.415788 0.927640 3.464751 9.185256 3.159456 1.506917 -10.567573 -5.278073 -2.877283 -16.194863 5.487792 -2.934591 -9.127154 2.544629 -1.307191 -0.016410 0.000000 0.000000 0.000000 67.537183 -60.715623 2.067630 26.726075 -37.914993 9.331009 77.781049 44.299530 -47.524389 0.000000 0.000000 0.000000 -7.125000 0.000000 0.000000 149.794489 -69.804192 161.508081 0.000000 0.000000 0.000000 -54.595159 -65.899461 4.951975 -28.388698 -39.470403 -10.370271 -100.071375 105.701976 34.555678 0.000000 0.000000 0.000000 7.125000 0.000000 0.000000 -48.617852 -65.041086 -65.315472
7.406261 24.010467 15.163002 -181.379945 -181.854962 -88.510583 0.000000 0.000000 0.000000 56.561878 -48.184730 -30.450679 1.167046 6.856552 19.291377 13.934172 1.340257 -73.183871 9.536803 17.140868 57.928468 0.000000 0.000000 0.000000 45.463957 -35.206009 -95.532617 -0.492450 -4.497519 12.481031 -7.614424 -6.078140 51.793749 -7.928818 -16.064722 52.302625 -5.813332 4.164678 48.375961 1.749690 2.308015 6.763138 3.638069 1.112352 -13.182125 -6.669427 -2.925321 -15.688463 6.292333 -2.649278 -13.588920 3.148638 -1.108531 -1.573399 0.000000 0.000000 0.000000 85.867731 -62.032791 25.419224 29.995522 -40.887919 11.407296 77.819950 45.028702 -46.750365 0.000000 0.000000 0.000000 -7.125000 0.000000 0.000000 147.951790 -69.903552 160.233320 0.000000 0.000000 0.000000 -79.218733 -65.491917 -18.196179 -33.097760 -43.403552 -13.489699 -101.821045 104.280189 34.257399 0.000000 0.000000 0.000000 7.125000 0.000000 0.000000 -52.763574 -66.721110 -69.753369
7.284381 24.881031 16.101214 -178.726594 -181.952715 -68.256582 0.000000 0.000000 0.000000 66.276544 -45.846145 -32.918323 0.990016 6.332607 17.752704 16.856332 -7.987369 -80.972353 10.020633 17.421118 59.556932 0.000000 0.000000 0.000000 64.854071 -29.508987 -117.301403 -0.259688 -3.278693 9.055571 -11.452557 -9.136290 64.580526 -8.806459 -16.681398 55.418203 -6.136595 3.250335 42.466142 2.001391 1.591521 4.373793 4.665461 1.045435 -15.661927 -5.851473 -3.127246 -15.155973 5.062656 -3.162022 -16.040108 2.607433 -1.414857 -2.503055 0.000000 0.000000 0.000000 97.280769 -62.332194 43.848837 35.422738 -45.108845 15.112980 79.452991 48.794820 -44.890598 0.000000 0.000000 0.000000 -7.125000 0.000000 0.000000 145.111536 -68.861282 159.130832 0.000000 0.000000 0.000000 -92.512517 -62.191796 -33.801235 -39.687677 -47.879375 -18.208608 -100.527086 100.445498 34.839988 0.000000 0.000000 0.000000 7.125000 0.000000 0.000000 -49.020864 -65.544729 -65.548673
7.241664 25.260353 16.947395 -178.762715 -182.093678 -50.328328 0.000000 0.000000 0.000000 75.669544 -47.417134 -39.809491 1.390978 7.461481 21.090042 18.668993 -18.790362 -86.106762 10.280947 17.564847 60.423324 0.000000 0.000000 0.000000 60.732922 -23.465803 -114.357428 -0.245030 -3.185263 8.795010 -10.884507 -11.793084 62.571696 -8.877680 -16.727849 55.665328 -6.635894 2.882475 34.689190 1.645750 1.386530 2.495747 4.773776 1.054681 -15.148819 -5.912382 -3.318302 -15.707251 5.036476 -3.388093 -17.468103 2.628828 -1.521722 -2.910346 0.000000 0.000000 0.000000 109.226513 -60.160362 60.022538 41.312067 -48.827459 19.421474 81.999414 53.993913 -47.294691 0.000000 0.000000 0.000000 -7.125000 0.000000 0.000000 152.457206 -66.492800 165.214016 0.000000 0.000000 0.000000 -100.625431 -59.565579 -47.077756 -47.963547 -52.136006 -24.558131 -100.232231 100.692281 34.618875 0.000000 0.000000 0.000000 7.125000 0.000000 0.000000 -48.828621 -65.213359 -65.492518
